<svg xmlns="http://www.w3.org/2000/svg" width="240" height="240" viewBox="0 0 240 240">
<defs><radialGradient id="sprouts-star-happy-bodyGrad" cx="35%" cy="28%" r="80%"><stop offset="0%" stop-color="#FDE8FF"/><stop offset="55%" stop-color="#B98CFF"/><stop offset="100%" stop-color="#7C4FD1"/></radialGradient><linearGradient id="sprouts-star-happy-accentGrad" x1="0" y1="1" x2="0" y2="0"><stop offset="0%" stop-color="#B98CFF"/><stop offset="100%" stop-color="#FFD9F5"/></linearGradient><radialGradient id="sprouts-star-happy-shadowGrad" cx="50%" cy="50%" r="50%"><stop offset="0%" stop-color="#5E37A8" stop-opacity="0.35"/><stop offset="100%" stop-color="#5E37A8" stop-opacity="0"/></radialGradient><filter id="sprouts-star-happy-softBlur" x="-50%" y="-50%" width="200%" height="200%"><feGaussianBlur stdDeviation="3"/></filter></defs>
<ellipse cx="120.00" cy="176.17" rx="42.18" ry="10.66" fill="url(#sprouts-star-happy-shadowGrad)"/>
<g transform="translate(120.00 108.00) rotate(0) scale(0.94 1.12) translate(-120.00 -108.00)">
<path d="M 86.70,103.56 L 71.42,81.74" stroke="#7C4FD1" stroke-width="7.1" stroke-linecap="round" fill="none"/>
<path d="M 153.30,103.56 L 168.58,81.74" stroke="#7C4FD1" stroke-width="7.1" stroke-linecap="round" fill="none"/>
<path d="M 118.59,30.07 Q 120.00,25.86 121.41,30.07 L 134.57,69.50 Q 138.79,82.14 152.11,82.25 L 193.68,82.58 Q 198.12,82.62 194.55,85.26 L 161.12,109.96 Q 150.40,117.88 154.42,130.58 L 166.94,170.22 Q 168.28,174.45 164.67,171.87 L 130.84,147.71 Q 120.00,139.97 109.16,147.71 L 75.33,171.87 Q 71.72,174.45 73.06,170.22 L 85.58,130.58 Q 89.60,117.88 78.88,109.96 L 45.45,85.26 Q 41.88,82.62 46.32,82.58 L 87.89,82.25 Q 101.21,82.14 105.43,69.50 Z" fill="#7C4FD1" stroke="#5E37A8" stroke-width="2" stroke-linejoin="round"/>
<path d="M 151.70,108.00 C 151.70,113.09 149.12,118.74 146.45,123.27 C 143.78,127.80 140.10,132.55 135.70,135.19 C 131.29,137.82 125.18,139.17 120.00,139.08 C 114.82,138.99 109.18,137.19 104.62,134.65 C 100.05,132.10 95.13,128.25 92.62,123.81 C 90.11,119.37 89.54,113.27 89.54,108.00 C 89.54,102.73 90.11,96.63 92.62,92.19 C 95.13,87.75 100.05,83.90 104.62,81.35 C 109.18,78.81 114.82,77.01 120.00,76.92 C 125.18,76.83 131.29,78.18 135.70,80.81 C 140.10,83.45 143.78,88.20 146.45,92.73 C 149.12,97.26 151.70,102.91 151.70,108.00 Z" fill="url(#sprouts-star-happy-bodyGrad)" stroke="#5E37A8" stroke-width="3" stroke-linejoin="round"/>
<ellipse cx="110.23" cy="90.24" rx="15.10" ry="8.88" fill="#FFFFFF" opacity="0.28"/>
<ellipse cx="96.91" cy="114.22" rx="5.77" ry="3.55" fill="#FFD9F5" opacity="0.6"/><ellipse cx="143.09" cy="114.22" rx="5.77" ry="3.55" fill="#FFD9F5" opacity="0.6"/>
<path d="M 98.69,105.34 Q 104.90,96.46 111.12,105.34" stroke="#4A3728" stroke-width="2.22" stroke-linecap="round" fill="none"/><path d="M 128.88,105.34 Q 135.10,96.46 141.31,105.34" stroke="#4A3728" stroke-width="2.22" stroke-linecap="round" fill="none"/>
<ellipse cx="120.00" cy="121.14" rx="6.66" ry="5.33" fill="#4A3728"/>
</g>
<g><path d="M 163.77,83.43 C 164.10,85.31 165.65,85.31 165.99,85.65 C 164.10,85.98 164.10,87.53 163.77,87.87 C 163.43,85.98 161.88,85.98 161.55,85.65 C 163.43,85.31 163.43,83.76 163.77,83.43 Z" fill="#FDE8FF" opacity="0.75"/><path d="M 102.97,153.07 C 103.53,156.28 106.18,156.28 106.74,156.85 C 103.53,157.41 103.53,160.06 102.97,160.62 C 102.40,157.41 99.76,157.41 99.19,156.85 C 102.40,156.28 102.40,153.64 102.97,153.07 Z" fill="#FFFFFF" opacity="0.70"/><path d="M 89.85,50.09 C 90.65,54.62 94.38,54.62 95.18,55.42 C 90.65,56.22 90.65,59.94 89.85,60.74 C 89.05,56.22 85.32,56.22 84.52,55.42 C 89.05,54.62 89.05,50.89 89.85,50.09 Z" fill="#FDE8FF" opacity="0.65"/><path d="M 171.63,118.43 C 172.66,124.28 177.48,124.28 178.51,125.31 C 172.66,126.34 172.66,131.16 171.63,132.19 C 170.60,126.34 165.78,126.34 164.75,125.31 C 170.60,124.28 170.60,119.46 171.63,118.43 Z" fill="#FFFFFF" opacity="0.60"/></g>
</svg>