<svg xmlns="http://www.w3.org/2000/svg" width="240" height="240" viewBox="0 0 240 240">
<defs><radialGradient id="sprouts-sun-idle-bodyGrad" cx="35%" cy="28%" r="80%"><stop offset="0%" stop-color="#FFF1B8"/><stop offset="55%" stop-color="#FFC93C"/><stop offset="100%" stop-color="#E89A1C"/></radialGradient><linearGradient id="sprouts-sun-idle-accentGrad" x1="0" y1="1" x2="0" y2="0"><stop offset="0%" stop-color="#FFC93C"/><stop offset="100%" stop-color="#FFF8E1"/></linearGradient><radialGradient id="sprouts-sun-idle-shadowGrad" cx="50%" cy="50%" r="50%"><stop offset="0%" stop-color="#C97A0E" stop-opacity="0.35"/><stop offset="100%" stop-color="#C97A0E" stop-opacity="0"/></radialGradient><filter id="sprouts-sun-idle-softBlur" x="-50%" y="-50%" width="200%" height="200%"><feGaussianBlur stdDeviation="3"/></filter></defs>
<ellipse cx="120.00" cy="176.17" rx="42.18" ry="10.66" fill="url(#sprouts-sun-idle-shadowGrad)"/>
<g transform="translate(120.00 122.00) rotate(0) scale(1.0 1.0) translate(-120.00 -122.00)">
<path d="M 85.37,124.22 L 71.36,144.22" stroke="#E89A1C" stroke-width="7.1" stroke-linecap="round" fill="none"/>
<path d="M 154.63,124.22 L 168.64,144.22" stroke="#E89A1C" stroke-width="7.1" stroke-linecap="round" fill="none"/>
<path d="M 116.07,61.32 Q 120.00,55.40 123.93,61.32 L 128.67,68.45 Q 136.99,80.98 151.74,78.00 L 160.13,76.31 Q 167.09,74.91 165.69,81.87 L 164.00,90.26 Q 161.02,105.01 173.55,113.33 L 180.68,118.07 Q 186.60,122.00 180.68,125.93 L 173.55,130.67 Q 161.02,138.99 164.00,153.74 L 165.69,162.13 Q 167.09,169.09 160.13,167.69 L 151.74,166.00 Q 136.99,163.02 128.67,175.55 L 123.93,182.68 Q 120.00,188.60 116.07,182.68 L 111.33,175.55 Q 103.01,163.02 88.26,166.00 L 79.87,167.69 Q 72.91,169.09 74.31,162.13 L 76.00,153.74 Q 78.98,138.99 66.45,130.67 L 59.32,125.93 Q 53.40,122.00 59.32,118.07 L 66.45,113.33 Q 78.98,105.01 76.00,90.26 L 74.31,81.87 Q 72.91,74.91 79.87,76.31 L 88.26,78.00 Q 103.01,80.98 111.33,68.45 Z" fill="#E89A1C" stroke="#C97A0E" stroke-width="2" stroke-linejoin="round"/>
<path d="M 158.95,122.00 C 158.95,128.30 156.08,135.44 152.74,140.90 C 149.40,146.36 144.36,151.40 138.90,154.74 C 133.44,158.08 126.30,160.95 120.00,160.95 C 113.70,160.95 106.56,158.08 101.10,154.74 C 95.64,151.40 90.60,146.36 87.26,140.90 C 83.92,135.44 81.05,128.30 81.05,122.00 C 81.05,115.70 83.92,108.56 87.26,103.10 C 90.60,97.64 95.64,92.60 101.10,89.26 C 106.56,85.92 113.70,83.05 120.00,83.05 C 126.30,83.05 133.44,85.92 138.90,89.26 C 144.36,92.60 149.40,97.64 152.74,103.10 C 156.08,108.56 158.95,115.70 158.95,122.00 Z" fill="url(#sprouts-sun-idle-bodyGrad)" stroke="#C97A0E" stroke-width="3" stroke-linejoin="round"/>
<ellipse cx="110.23" cy="104.24" rx="15.10" ry="8.88" fill="#FFFFFF" opacity="0.28"/>
<ellipse cx="96.91" cy="128.22" rx="5.77" ry="3.55" fill="#FFF8E1" opacity="0.6"/><ellipse cx="143.09" cy="128.22" rx="5.77" ry="3.55" fill="#FFF8E1" opacity="0.6"/>
<circle cx="104.90" cy="119.34" r="5.33" fill="#4A3728"/><circle cx="106.77" cy="117.47" r="1.70" fill="#FFFFFF"/><circle cx="135.10" cy="119.34" r="5.33" fill="#4A3728"/><circle cx="136.96" cy="117.47" r="1.70" fill="#FFFFFF"/>
<path d="M 112.90,133.54 Q 120.00,139.76 127.10,133.54" stroke="#4A3728" stroke-width="2.00" stroke-linecap="round" fill="none"/>
</g>
</svg>